<svg width="61" height="91" viewBox="0 0 61 91" fill="none" xmlns="http://www.w3.org/2000/svg">
<g clip-path="url(#clip0_1_46)">
<g clip-path="url(#clip1_1_46)">
<path d="M53.9946 58.965H7.22967C3.22404 58.965 0 55.7723 0 51.8629V31.534C0 28.8625 0 26.3866 3.81023 23.65L31.3937 2.99524C34.6178 0.584431 39.2422 2.8975 39.2422 6.93723V19.089C39.2422 21.8582 42.4011 23.4219 44.6156 21.793C46.6021 20.2944 50.0867 17.6881 53.3758 15.2122C56.5999 12.7688 61.2243 15.0818 61.2243 19.1216V51.8629C61.2243 55.8049 58.0002 58.965 53.9946 58.965Z" fill="#FFE361"/>
</g>
</g>
<path d="M52.1992 90.2876V82.5375H53.1514V83.754L53.0258 83.5128C53.2351 83.1772 53.5211 82.9116 53.8838 82.7158C54.2466 82.5131 54.6616 82.4117 55.129 82.4117C55.6592 82.4117 56.1335 82.541 56.5521 82.7997C56.9776 83.0584 57.3124 83.4115 57.5566 83.8589C57.8007 84.2994 57.9228 84.8028 57.9228 85.3691C57.9228 85.9214 57.8007 86.4213 57.5566 86.8688C57.3124 87.3162 56.9776 87.6693 56.5521 87.928C56.1335 88.1867 55.6557 88.316 55.1185 88.316C54.6651 88.316 54.2501 88.2146 53.8734 88.0119C53.5037 87.8091 53.2177 87.5225 53.0154 87.1519L53.1723 86.9841V90.2876H52.1992ZM55.0453 87.3722C55.4011 87.3722 55.7185 87.2848 55.9975 87.11C56.2765 86.9352 56.4928 86.6975 56.6462 86.3968C56.8067 86.0892 56.8869 85.7466 56.8869 85.3691C56.8869 84.9776 56.8067 84.635 56.6462 84.3413C56.4928 84.0407 56.2765 83.803 55.9975 83.6282C55.7185 83.4464 55.4011 83.3555 55.0453 83.3555C54.6895 83.3555 54.3687 83.4429 54.0826 83.6177C53.8036 83.7925 53.5804 84.0337 53.413 84.3413C53.2525 84.642 53.1723 84.9846 53.1723 85.3691C53.1723 85.7466 53.2525 86.0892 53.413 86.3968C53.5804 86.6975 53.8036 86.9352 54.0826 87.11C54.3687 87.2848 54.6895 87.3722 55.0453 87.3722Z" fill="black"/>
<path d="M47.8865 88.316C47.5168 88.316 47.1889 88.2496 46.9029 88.1168C46.6239 87.9769 46.4041 87.7882 46.2437 87.5505C46.0832 87.3057 46.003 87.0261 46.003 86.7115C46.003 86.4108 46.0658 86.1417 46.1914 85.9039C46.3239 85.6592 46.5262 85.453 46.7983 85.2852C47.0773 85.1174 47.4261 84.9985 47.8446 84.9286L49.9373 84.5825V85.4006L48.0644 85.7152C47.7016 85.7781 47.4365 85.8935 47.2691 86.0613C47.1087 86.2291 47.0285 86.4353 47.0285 86.68C47.0285 86.9107 47.1191 87.103 47.3005 87.2568C47.4889 87.4106 47.7225 87.4875 48.0016 87.4875C48.3573 87.4875 48.6643 87.4141 48.9224 87.2673C49.1874 87.1135 49.3932 86.9072 49.5397 86.6485C49.6932 86.3899 49.7699 86.1032 49.7699 85.7886V84.3518C49.7699 84.0442 49.6548 83.796 49.4246 83.6072C49.2014 83.4115 48.9049 83.3136 48.5352 83.3136C48.2143 83.3136 47.9283 83.3975 47.6772 83.5653C47.4331 83.7261 47.2517 83.9428 47.1331 84.2155L46.2855 83.775C46.3902 83.5163 46.5576 83.2856 46.7878 83.0829C47.018 82.8731 47.2866 82.7088 47.5935 82.59C47.9004 82.4711 48.2213 82.4117 48.5561 82.4117C48.9886 82.4117 49.3688 82.4956 49.6967 82.6634C50.0245 82.8242 50.2791 83.0514 50.4605 83.345C50.6489 83.6317 50.743 83.9673 50.743 84.3518V88.1902H49.7908V87.1205L49.9687 87.1834C49.8501 87.4071 49.6897 87.6029 49.4874 87.7707C49.2851 87.9385 49.0479 88.0713 48.7759 88.1692C48.5038 88.2671 48.2074 88.316 47.8865 88.316Z" fill="black"/>
<path d="M39.1419 88.1903L37.2062 82.5377H38.2839L39.822 87.2674L39.4454 87.2569L40.9521 82.5377H41.8729L43.3797 87.2569L43.003 87.2674L44.5516 82.5377H45.6189L43.6831 88.1903H42.7518L41.266 83.471H41.559L40.0732 88.1903H39.1419Z" fill="black"/>
<path d="M34.6744 88.316C34.1094 88.316 33.6176 88.1762 33.1991 87.8965C32.7805 87.6169 32.4841 87.2393 32.3097 86.7639L33.084 86.3864C33.2444 86.722 33.4642 86.9876 33.7432 87.1834C34.0222 87.3792 34.3326 87.477 34.6744 87.477C34.9814 87.477 35.236 87.4036 35.4383 87.2568C35.6406 87.11 35.7417 86.9177 35.7417 86.68C35.7417 86.5122 35.6929 86.3794 35.5952 86.2815C35.5045 86.1766 35.3929 86.0962 35.2604 86.0403C35.1279 85.9774 35.0058 85.9319 34.8942 85.9039L34.0466 85.6627C33.5374 85.5159 33.1642 85.3062 32.927 85.0335C32.6968 84.7608 32.5817 84.4427 32.5817 84.0792C32.5817 83.7436 32.6654 83.4534 32.8328 83.2087C33.0072 82.957 33.2409 82.7613 33.5339 82.6214C33.8339 82.4816 34.1687 82.4117 34.5384 82.4117C35.0337 82.4117 35.4766 82.5375 35.8673 82.7892C36.2649 83.0409 36.5474 83.394 36.7148 83.8484L35.9196 84.2155C35.794 83.9218 35.6057 83.6911 35.3546 83.5233C35.1034 83.3485 34.8209 83.2611 34.507 83.2611C34.221 83.2611 33.9943 83.3346 33.8269 83.4814C33.6595 83.6212 33.5758 83.7995 33.5758 84.0162C33.5758 84.177 33.6176 84.3099 33.7013 84.4147C33.785 84.5126 33.8862 84.5895 34.0048 84.6455C34.1234 84.6944 34.2385 84.7364 34.3501 84.7713L35.2709 85.044C35.7313 85.1768 36.087 85.3831 36.3381 85.6627C36.5962 85.9424 36.7253 86.278 36.7253 86.6695C36.7253 86.9841 36.6381 87.2673 36.4637 87.519C36.2893 87.7707 36.0487 87.9664 35.7417 88.1063C35.4348 88.2461 35.079 88.316 34.6744 88.316Z" fill="black"/>
<path d="M50.2327 80.7365C49.2805 80.7365 48.4361 80.5642 47.6995 80.2195C46.9809 79.8567 46.4149 79.3669 46.0017 78.7501C45.5885 78.1152 45.3819 77.3895 45.3819 76.5732C45.3819 75.7931 45.5436 75.0947 45.867 74.4779C46.2083 73.843 46.7293 73.3079 47.43 72.8725C48.1487 72.4371 49.047 72.1287 50.125 71.9473L55.5148 71.0493V73.1718L50.6909 73.9881C49.7566 74.1514 49.0739 74.4507 48.6427 74.8861C48.2295 75.3215 48.0229 75.8566 48.0229 76.4916C48.0229 77.0902 48.2565 77.5891 48.7236 77.9882C49.2087 78.3873 49.8105 78.5868 50.5292 78.5868C51.4455 78.5868 52.236 78.3963 52.9007 78.0154C53.5834 77.6163 54.1134 77.0811 54.4907 76.4099C54.886 75.7387 55.0836 74.9949 55.0836 74.1786V70.4507C55.0836 69.6525 54.7872 69.0085 54.1943 68.5187C53.6194 68.0107 52.8558 67.7568 51.9036 67.7568C51.0772 67.7568 50.3405 67.9745 49.6938 68.4098C49.0649 68.8271 48.5978 69.3894 48.2924 70.0969L46.1095 68.9541C46.379 68.2829 46.8102 67.6842 47.4031 67.1581C47.996 66.6139 48.6877 66.1876 49.4782 65.8792C50.2687 65.5708 51.0951 65.4166 51.9575 65.4166C53.0714 65.4166 54.0506 65.6343 54.895 66.0697C55.7394 66.4869 56.3952 67.0765 56.8623 67.8384C57.3474 68.5822 57.5899 69.4529 57.5899 70.4507V80.41H55.1375V77.6344L55.5957 77.7977C55.2902 78.3782 54.877 78.8861 54.356 79.3215C53.835 79.7569 53.2241 80.1016 52.5234 80.3555C51.8228 80.6095 51.0592 80.7365 50.2327 80.7365Z" fill="black"/>
<path d="M31.9766 80.4971V78.3219L40.8986 67.1704L41.3433 68.1065H32.4213V65.656H43.6503V67.8312L34.8116 79.0102L34.3669 78.0465H43.7058V80.4971H31.9766Z" fill="black"/>
<path d="M22.2258 80.7365C21.2736 80.7365 20.4292 80.5642 19.6926 80.2195C18.974 79.8567 18.408 79.3669 17.9948 78.7501C17.5816 78.1152 17.375 77.3895 17.375 76.5732C17.375 75.7931 17.5367 75.0947 17.8601 74.4779C18.2014 73.843 18.7224 73.3079 19.4231 72.8725C20.1418 72.4371 21.0401 72.1287 22.118 71.9473L27.5079 71.0493V73.1718L22.684 73.9881C21.7497 74.1514 21.067 74.4507 20.6358 74.8861C20.2226 75.3215 20.016 75.8566 20.016 76.4916C20.016 77.0902 20.2496 77.5891 20.7167 77.9882C21.2018 78.3873 21.8036 78.5868 22.5223 78.5868C23.4386 78.5868 24.2291 78.3963 24.8938 78.0154C25.5765 77.6163 26.1065 77.0811 26.4838 76.4099C26.8791 75.7387 27.0767 74.9949 27.0767 74.1786V70.4507C27.0767 69.6525 26.7803 69.0085 26.1874 68.5187C25.6125 68.0107 24.8489 67.7568 23.8967 67.7568C23.0703 67.7568 22.3336 67.9745 21.6869 68.4098C21.058 68.8271 20.5909 69.3894 20.2855 70.0969L18.1026 68.9541C18.3721 68.2829 18.8033 67.6842 19.3962 67.1581C19.9891 66.6139 20.6807 66.1876 21.4713 65.8792C22.2618 65.5708 23.0882 65.4166 23.9506 65.4166C25.0645 65.4166 26.0437 65.6343 26.8881 66.0697C27.7325 66.4869 28.3882 67.0765 28.8554 67.8384C29.3405 68.5822 29.583 69.4529 29.583 70.4507V80.41H27.1306V77.6344L27.5888 77.7977C27.2833 78.3782 26.8701 78.8861 26.3491 79.3215C25.8281 79.7569 25.2172 80.1016 24.5165 80.3555C23.8159 80.6095 23.0523 80.7365 22.2258 80.7365Z" fill="black"/>
<path d="M3.25195 82.412V63.7409H5.68867V74.2418L5.09192 73.9912L13.9437 63.7409H17.002L9.56753 72.3873L9.69185 70.6329L17.375 82.412H14.4658L8.59781 73.5401L5.68867 76.8984V82.412H3.25195Z" fill="black"/>
<defs>
<clipPath id="clip0_1_46">
<rect width="61" height="58.7407" fill="white"/>
</clipPath>
<clipPath id="clip1_1_46">
<rect width="61.2243" height="56.9471" fill="white" transform="translate(0 2.01799)"/>
</clipPath>
</defs>
</svg>
