<svg width="32" height="32" viewBox="0 0 32 32" fill="none" xmlns="http://www.w3.org/2000/svg">
<path fill-rule="evenodd" clip-rule="evenodd" d="M22.0024 10.0001C19.425 10.0001 17.3357 7.91072 17.3357 5.33339C17.3415 4.91795 17.4033 4.50518 17.5195 4.10626C14.0379 3.63808 10.527 4.72819 7.92284 7.08593C5.31871 9.44367 3.88613 12.8293 4.00709 16.3401C4.25139 22.6731 9.32914 27.7509 15.6621 27.9953C19.1729 28.1163 22.5587 26.6838 24.9164 24.0797C27.2742 21.4755 28.3644 17.9646 27.8962 14.483C26.4942 14.8919 24.9814 14.6115 23.8191 13.7274C22.6567 12.8433 21.9826 11.4603 22.0024 10.0001V10.0001Z" stroke="#FFE361" stroke-width="1.15" stroke-linecap="round" stroke-linejoin="round"/>
<path d="M12.003 12L12.0024 11.9993L12.0017 12" stroke="#FFE361" stroke-width="1.15" stroke-linecap="round" stroke-linejoin="round"/>
<path d="M12.001 12L12.0024 12.0013L12.0037 12" stroke="#FFE361" stroke-width="1.15" stroke-linecap="round" stroke-linejoin="round"/>
<path d="M16.003 16L16.0024 15.9993L16.0017 16" stroke="#FFE361" stroke-width="1.15" stroke-linecap="round" stroke-linejoin="round"/>
<path d="M16.001 16L16.0024 16.0013L16.0037 16" stroke="#FFE361" stroke-width="1.15" stroke-linecap="round" stroke-linejoin="round"/>
<path d="M17.3363 21.3335L17.3356 21.3328L17.3349 21.3335" stroke="#FFE361" stroke-width="1.15" stroke-linecap="round" stroke-linejoin="round"/>
<path d="M17.3345 21.3335L17.3358 21.3348V21.3335" stroke="#FFE361" stroke-width="1.15" stroke-linecap="round" stroke-linejoin="round"/>
<path d="M10.6698 18.6668L10.6691 18.6661L10.6684 18.6668" stroke="#FFE361" stroke-width="1.15" stroke-linecap="round" stroke-linejoin="round"/>
<path d="M10.6678 18.6667L10.6691 18.6681L10.6704 18.6667" stroke="#FFE361" stroke-width="1.15" stroke-linecap="round" stroke-linejoin="round"/>
</svg>
